<svg width="40" height="36" viewBox="0 0 40 36" fill="none" xmlns="http://www.w3.org/2000/svg">
<rect width="40" height="36" fill="#E9ECEF"/>
<g clip-path="url(#clip0_1564_26514)">
<path fill-rule="evenodd" clip-rule="evenodd" d="M26 10H14C13.4696 10 12.9609 10.2107 12.5858 10.5858C12.2107 10.9609 12 11.4696 12 12V24C12 24.5304 12.2107 25.0391 12.5858 25.4142C12.9609 25.7893 13.4696 26 14 26H26C26.5304 26 27.0391 25.7893 27.4142 25.4142C27.7893 25.0391 28 24.5304 28 24V12C28 11.4696 27.7893 10.9609 27.4142 10.5858C27.0391 10.2107 26.5304 10 26 10V10ZM13 13.857C13 13.384 13.448 13 14 13H26C26.552 13 27 13.384 27 13.857V24.143C27 24.616 26.552 25 26 25H14C13.448 25 13 24.616 13 24.143V13.857Z" fill="#6D6D73"/>
<path fill-rule="evenodd" clip-rule="evenodd" d="M18.5 17C18.7652 17 19.0196 16.8946 19.2071 16.7071C19.3946 16.5196 19.5 16.2652 19.5 16C19.5 15.7348 19.3946 15.4804 19.2071 15.2929C19.0196 15.1054 18.7652 15 18.5 15C18.2348 15 17.9804 15.1054 17.7929 15.2929C17.6054 15.4804 17.5 15.7348 17.5 16C17.5 16.2652 17.6054 16.5196 17.7929 16.7071C17.9804 16.8946 18.2348 17 18.5 17ZM21.5 17C21.7652 17 22.0196 16.8946 22.2071 16.7071C22.3946 16.5196 22.5 16.2652 22.5 16C22.5 15.7348 22.3946 15.4804 22.2071 15.2929C22.0196 15.1054 21.7652 15 21.5 15C21.2348 15 20.9804 15.1054 20.7929 15.2929C20.6054 15.4804 20.5 15.7348 20.5 16C20.5 16.2652 20.6054 16.5196 20.7929 16.7071C20.9804 16.8946 21.2348 17 21.5 17ZM24.5 17C24.7652 17 25.0196 16.8946 25.2071 16.7071C25.3946 16.5196 25.5 16.2652 25.5 16C25.5 15.7348 25.3946 15.4804 25.2071 15.2929C25.0196 15.1054 24.7652 15 24.5 15C24.2348 15 23.9804 15.1054 23.7929 15.2929C23.6054 15.4804 23.5 15.7348 23.5 16C23.5 16.2652 23.6054 16.5196 23.7929 16.7071C23.9804 16.8946 24.2348 17 24.5 17ZM15.5 20C15.7652 20 16.0196 19.8946 16.2071 19.7071C16.3946 19.5196 16.5 19.2652 16.5 19C16.5 18.7348 16.3946 18.4804 16.2071 18.2929C16.0196 18.1054 15.7652 18 15.5 18C15.2348 18 14.9804 18.1054 14.7929 18.2929C14.6054 18.4804 14.5 18.7348 14.5 19C14.5 19.2652 14.6054 19.5196 14.7929 19.7071C14.9804 19.8946 15.2348 20 15.5 20ZM18.5 20C18.7652 20 19.0196 19.8946 19.2071 19.7071C19.3946 19.5196 19.5 19.2652 19.5 19C19.5 18.7348 19.3946 18.4804 19.2071 18.2929C19.0196 18.1054 18.7652 18 18.5 18C18.2348 18 17.9804 18.1054 17.7929 18.2929C17.6054 18.4804 17.5 18.7348 17.5 19C17.5 19.2652 17.6054 19.5196 17.7929 19.7071C17.9804 19.8946 18.2348 20 18.5 20ZM21.5 20C21.7652 20 22.0196 19.8946 22.2071 19.7071C22.3946 19.5196 22.5 19.2652 22.5 19C22.5 18.7348 22.3946 18.4804 22.2071 18.2929C22.0196 18.1054 21.7652 18 21.5 18C21.2348 18 20.9804 18.1054 20.7929 18.2929C20.6054 18.4804 20.5 18.7348 20.5 19C20.5 19.2652 20.6054 19.5196 20.7929 19.7071C20.9804 19.8946 21.2348 20 21.5 20ZM24.5 20C24.7652 20 25.0196 19.8946 25.2071 19.7071C25.3946 19.5196 25.5 19.2652 25.5 19C25.5 18.7348 25.3946 18.4804 25.2071 18.2929C25.0196 18.1054 24.7652 18 24.5 18C24.2348 18 23.9804 18.1054 23.7929 18.2929C23.6054 18.4804 23.5 18.7348 23.5 19C23.5 19.2652 23.6054 19.5196 23.7929 19.7071C23.9804 19.8946 24.2348 20 24.5 20ZM15.5 23C15.7652 23 16.0196 22.8946 16.2071 22.7071C16.3946 22.5196 16.5 22.2652 16.5 22C16.5 21.7348 16.3946 21.4804 16.2071 21.2929C16.0196 21.1054 15.7652 21 15.5 21C15.2348 21 14.9804 21.1054 14.7929 21.2929C14.6054 21.4804 14.5 21.7348 14.5 22C14.5 22.2652 14.6054 22.5196 14.7929 22.7071C14.9804 22.8946 15.2348 23 15.5 23ZM18.5 23C18.7652 23 19.0196 22.8946 19.2071 22.7071C19.3946 22.5196 19.5 22.2652 19.5 22C19.5 21.7348 19.3946 21.4804 19.2071 21.2929C19.0196 21.1054 18.7652 21 18.5 21C18.2348 21 17.9804 21.1054 17.7929 21.2929C17.6054 21.4804 17.5 21.7348 17.5 22C17.5 22.2652 17.6054 22.5196 17.7929 22.7071C17.9804 22.8946 18.2348 23 18.5 23ZM21.5 23C21.7652 23 22.0196 22.8946 22.2071 22.7071C22.3946 22.5196 22.5 22.2652 22.5 22C22.5 21.7348 22.3946 21.4804 22.2071 21.2929C22.0196 21.1054 21.7652 21 21.5 21C21.2348 21 20.9804 21.1054 20.7929 21.2929C20.6054 21.4804 20.5 21.7348 20.5 22C20.5 22.2652 20.6054 22.5196 20.7929 22.7071C20.9804 22.8946 21.2348 23 21.5 23Z" fill="#6D6D73"/>
</g>
<defs>
<clipPath id="clip0_1564_26514">
<rect width="16" height="16" fill="white" transform="translate(12 10)"/>
</clipPath>
</defs>
</svg>
