<svg width="20" height="20" viewBox="0 0 20 20" fill="none" xmlns="http://www.w3.org/2000/svg">
<path fill-rule="evenodd" clip-rule="evenodd" d="M0.625 10C0.79076 10 0.949732 10.0658 1.06694 10.1831C1.18415 10.3003 1.25 10.4592 1.25 10.625V15C1.25 15.3315 1.3817 15.6495 1.61612 15.8839C1.85054 16.1183 2.16848 16.25 2.5 16.25H17.5C17.8315 16.25 18.1495 16.1183 18.3839 15.8839C18.6183 15.6495 18.75 15.3315 18.75 15V10.625C18.75 10.4592 18.8158 10.3003 18.9331 10.1831C19.0503 10.0658 19.2092 10 19.375 10C19.5408 10 19.6997 10.0658 19.8169 10.1831C19.9342 10.3003 20 10.4592 20 10.625V15C20 15.663 19.7366 16.2989 19.2678 16.7678C18.7989 17.2366 18.163 17.5 17.5 17.5H2.5C1.83696 17.5 1.20107 17.2366 0.732233 16.7678C0.263392 16.2989 0 15.663 0 15V10.625C0 10.4592 0.065848 10.3003 0.183058 10.1831C0.300269 10.0658 0.45924 10 0.625 10Z" fill="#DD0A34"/>
<path fill-rule="evenodd" clip-rule="evenodd" d="M6.25037 9.37538C6.36758 9.25821 6.52652 9.19238 6.69225 9.19238C6.85798 9.19238 7.01692 9.25821 7.13412 9.37538L10.0004 12.2416L12.8666 9.37538C12.9243 9.31568 12.9932 9.26807 13.0695 9.23531C13.1457 9.20256 13.2278 9.18532 13.3107 9.18459C13.3937 9.18387 13.476 9.19969 13.5528 9.23111C13.6297 9.26254 13.6994 9.30895 13.7581 9.36763C13.8168 9.42631 13.8632 9.49609 13.8946 9.5729C13.9261 9.64971 13.9419 9.73201 13.9412 9.815C13.9404 9.89799 13.9232 9.98 13.8904 10.0563C13.8577 10.1325 13.8101 10.2015 13.7504 10.2591L10.4429 13.5679C10.3848 13.6261 10.3158 13.6723 10.2399 13.7038C10.164 13.7353 10.0826 13.7515 10.0004 13.7515C9.91817 13.7515 9.83676 13.7353 9.76083 13.7038C9.6849 13.6723 9.61593 13.6261 9.55787 13.5679L6.25037 10.2591C6.13321 10.1419 6.06738 9.98298 6.06738 9.81725C6.06738 9.65152 6.13321 9.49258 6.25037 9.37538Z" fill="#DD0A34"/>
<path fill-rule="evenodd" clip-rule="evenodd" d="M10 1.25C10.1658 1.25 10.3247 1.31585 10.4419 1.43306C10.5592 1.55027 10.625 1.70924 10.625 1.875V11.875C10.625 12.0408 10.5592 12.1997 10.4419 12.3169C10.3247 12.4342 10.1658 12.5 10 12.5C9.83424 12.5 9.67527 12.4342 9.55806 12.3169C9.44085 12.1997 9.375 12.0408 9.375 11.875V1.875C9.375 1.70924 9.44085 1.55027 9.55806 1.43306C9.67527 1.31585 9.83424 1.25 10 1.25Z" fill="#DD0A34"/>
</svg>
