<svg width="91" height="16" viewBox="0 0 91 16" fill="none" xmlns="http://www.w3.org/2000/svg">
<g clip-path="url(#clip0_639:18234)">
<path d="M44.6449 0H40.8127V15.9999H44.2253V5.44482H44.4351L48.0575 11.5345H49.8816L53.4945 5.44482H53.7042V15.9999H57.1475V0H53.3767L49.0379 7.26053L44.6449 0Z" fill="#DD0A34"/>
<path d="M64.2917 0H60.832V15.9999H64.2894V9.17083H66.0192L70.7891 15.9999H75.3003L68.9179 7.47391L74.7393 0H70.4148L65.9912 5.89817L64.2848 6.08965L64.2917 0Z" fill="#DD0A34"/>
<path fill-rule="evenodd" clip-rule="evenodd" d="M77.8085 0H90.2475L87.184 3.22422H81.2922V5.70664H84.8766C85.7043 5.69492 86.5297 5.79931 87.33 6.01693C88.038 6.20258 88.7043 6.52689 89.2933 6.97208C89.8165 7.40079 90.247 7.93759 90.5566 8.54782C90.8554 9.26439 91.0066 10.0371 90.9997 10.8169C91.0043 11.5808 90.8532 12.3372 90.5566 13.0375C90.2355 13.6599 89.7993 14.2118 89.2722 14.6617C88.6894 15.1133 88.0323 15.4533 87.3323 15.6653C86.5332 15.8914 85.7077 16.004 84.8789 15.9999H77.8085V0ZM81.2923 8.83619V12.7997L84.8887 12.7973C85.7537 12.7973 86.4062 12.6059 86.8281 12.2713C87.0393 12.0976 87.2087 11.8758 87.3221 11.6234C87.436 11.371 87.4909 11.0948 87.4835 10.8167C87.5012 10.5373 87.4503 10.2577 87.3358 10.0037C87.2213 9.74953 87.0467 9.52903 86.8281 9.36222C86.397 9.00341 85.7771 8.83619 84.9826 8.83619H81.2923Z" fill="#DD0A34"/>
<path d="M19.342 0.0169698L11.5788 7.99995L7.69956 4.00725L11.5835 0H3.81324L0 4.00725L11.6613 15.9999L21.6163 5.67755H27.5741L33.0772 0.0169698H19.342Z" fill="#DD0A34"/>
<path d="M13.2609 15.8278L14.3757 14.6933L22.0492 6.78784H33.0813L27.5735 12.446H24.3377L21.0618 15.8278H13.2609Z" fill="#DD0A34"/>
</g>
<defs>
<clipPath id="clip0_639:18234">
<rect width="91" height="16" fill="white"/>
</clipPath>
</defs>
</svg>
