<svg width="167" height="24" viewBox="0 0 167 24" fill="none" xmlns="http://www.w3.org/2000/svg">
<path d="M84.3125 18H79.7891V6.72656H84.2891C85.2891 6.72656 86.0911 6.98438 86.6953 7.5C87.2995 8.01042 87.6016 8.6901 87.6016 9.53906C87.6016 10.138 87.4062 10.6745 87.0156 11.1484C86.6302 11.6172 86.1562 11.8984 85.5938 11.9922V12.0547C86.3646 12.1432 86.9844 12.4401 87.4531 12.9453C87.9219 13.4453 88.1562 14.0677 88.1562 14.8125C88.1562 15.8073 87.8151 16.5885 87.1328 17.1562C86.4505 17.7188 85.5104 18 84.3125 18ZM81.5391 8.15625V11.5234H83.5C84.2552 11.5234 84.8359 11.3724 85.2422 11.0703C85.6484 10.7682 85.8516 10.3385 85.8516 9.78125C85.8516 9.26042 85.6797 8.85938 85.3359 8.57812C84.9922 8.29688 84.5026 8.15625 83.8672 8.15625H81.5391ZM81.5391 16.5703H83.9531C84.7396 16.5703 85.3385 16.4115 85.75 16.0938C86.1615 15.776 86.3672 15.3125 86.3672 14.7031C86.3672 13.474 85.5286 12.8594 83.8516 12.8594H81.5391V16.5703ZM96.9297 18V9.78125H98.6016V18H96.9297ZM92.7109 13.6406H91.2891V16.6719H92.7109C93.1953 16.6719 93.5807 16.5339 93.8672 16.2578C94.1589 15.9766 94.3047 15.6094 94.3047 15.1562C94.3047 14.6979 94.1589 14.3307 93.8672 14.0547C93.5755 13.7786 93.1901 13.6406 92.7109 13.6406ZM89.6094 18V9.78125H91.2891V12.3203H92.8594C93.8125 12.3203 94.5703 12.5781 95.1328 13.0938C95.7005 13.6042 95.9844 14.2917 95.9844 15.1562C95.9844 16.026 95.7005 16.7188 95.1328 17.2344C94.5703 17.7448 93.8125 18 92.8594 18H89.6094ZM102.086 18H100.422V9.78125H102.086V15.5391H102.148L105.945 9.78125H107.609V18H105.945V12.2266H105.883L102.086 18ZM101.539 6.17188H102.68C102.685 6.61979 102.82 6.99219 103.086 7.28906C103.352 7.58073 103.701 7.72656 104.133 7.72656C104.57 7.72656 104.922 7.58073 105.188 7.28906C105.453 6.99219 105.589 6.61979 105.594 6.17188H106.734C106.734 6.91146 106.495 7.51042 106.016 7.96875C105.536 8.42188 104.909 8.64844 104.133 8.64844C103.362 8.64844 102.737 8.42188 102.258 7.96875C101.779 7.51042 101.539 6.91146 101.539 6.17188ZM115.672 9.78125V11.1172H113.094V18H111.414V11.1172H108.836V9.78125H115.672ZM118.57 18H116.906V9.78125H118.57V15.5391H118.633L122.43 9.78125H124.094V18H122.43V12.2266H122.367L118.57 18Z" fill="#DD0A34"/>
<path fill-rule="evenodd" clip-rule="evenodd" d="M160.469 17.031C160.399 16.9613 160.344 16.8785 160.306 16.7874C160.268 16.6963 160.249 16.5986 160.249 16.5C160.249 16.4013 160.268 16.3036 160.306 16.2125C160.344 16.1214 160.399 16.0386 160.469 15.969L164.439 12L160.469 8.03097C160.328 7.89014 160.249 7.69913 160.249 7.49997C160.249 7.30081 160.328 7.1098 160.469 6.96897C160.61 6.82814 160.801 6.74902 161 6.74902C161.199 6.74902 161.39 6.82814 161.531 6.96897L166.031 11.469C166.101 11.5386 166.156 11.6214 166.194 11.7125C166.232 11.8036 166.251 11.9013 166.251 12C166.251 12.0986 166.232 12.1963 166.194 12.2874C166.156 12.3785 166.101 12.4613 166.031 12.531L161.531 17.031C161.461 17.1008 161.378 17.1562 161.287 17.194C161.196 17.2319 161.099 17.2513 161 17.2513C160.901 17.2513 160.804 17.2319 160.712 17.194C160.621 17.1562 160.539 17.1008 160.469 17.031V17.031Z" fill="#DD0A34"/>
<path fill-rule="evenodd" clip-rule="evenodd" d="M149.75 12C149.75 11.8011 149.829 11.6103 149.97 11.4697C150.11 11.329 150.301 11.25 150.5 11.25H164C164.199 11.25 164.39 11.329 164.53 11.4697C164.671 11.6103 164.75 11.8011 164.75 12C164.75 12.1989 164.671 12.3897 164.53 12.5303C164.39 12.671 164.199 12.75 164 12.75H150.5C150.301 12.75 150.11 12.671 149.97 12.5303C149.829 12.3897 149.75 12.1989 149.75 12Z" fill="#DD0A34"/>
<path fill-rule="evenodd" clip-rule="evenodd" d="M146 20.25C145.403 20.25 144.831 20.0129 144.409 19.591C143.987 19.169 143.75 18.5967 143.75 18V6C143.75 5.40326 143.987 4.83097 144.409 4.40901C144.831 3.98705 145.403 3.75 146 3.75H156.5C157.097 3.75 157.669 3.98705 158.091 4.40901C158.513 4.83097 158.75 5.40326 158.75 6V8.25C158.75 8.44891 158.671 8.63968 158.53 8.78033C158.39 8.92098 158.199 9 158 9C157.801 9 157.61 8.92098 157.47 8.78033C157.329 8.63968 157.25 8.44891 157.25 8.25V6C157.25 5.80109 157.171 5.61032 157.03 5.46967C156.89 5.32902 156.699 5.25 156.5 5.25H146C145.801 5.25 145.61 5.32902 145.47 5.46967C145.329 5.61032 145.25 5.80109 145.25 6V18C145.25 18.1989 145.329 18.3897 145.47 18.5303C145.61 18.671 145.801 18.75 146 18.75H156.5C156.699 18.75 156.89 18.671 157.03 18.5303C157.171 18.3897 157.25 18.1989 157.25 18V15.75C157.25 15.5511 157.329 15.3603 157.47 15.2197C157.61 15.079 157.801 15 158 15C158.199 15 158.39 15.079 158.53 15.2197C158.671 15.3603 158.75 15.5511 158.75 15.75V18C158.75 18.5967 158.513 19.169 158.091 19.591C157.669 20.0129 157.097 20.25 156.5 20.25H146Z" fill="#DD0A34"/>
</svg>
